HIERARCHY
ROOT pelvis
{
	OFFSET 0.003123 -0.351407 0.012037
	CHANNELS 6 Xposition Yposition Zposition Zrotation Yrotation Xrotation 
	JOINT left_hip
	{
		OFFSET 0.058189 -0.092763 -0.026001
		CHANNELS 3 Zrotation Yrotation Xrotation
		JOINT left_knee
		{
			OFFSET 0.054695 -0.378753 -0.009396
			CHANNELS 3 Zrotation Yrotation Xrotation
			JOINT left_ankle
			{
				OFFSET -0.043453 -0.403059 -0.031876
				CHANNELS 3 Zrotation Yrotation Xrotation
				JOINT left_foot
				{
					OFFSET 0.047257 -0.057997 0.118216
					CHANNELS 3 Zrotation Yrotation Xrotation
					End Site
					{
						OFFSET 0.000000 0.000000 0.000000
					}
				}
			}
		}
	}
	JOINT right_hip
	{
		OFFSET -0.063267 -0.103908 -0.021250
		CHANNELS 3 Zrotation Yrotation Xrotation
		JOINT right_knee
		{
			OFFSET -0.044210 -0.362380 -0.016824
			CHANNELS 3 Zrotation Yrotation Xrotation
			JOINT right_ankle
			{
				OFFSET 0.015417 -0.410728 -0.020192
				CHANNELS 3 Zrotation Yrotation Xrotation
				JOINT right_foot
				{
					OFFSET -0.038812 -0.058328 0.119049
					CHANNELS 3 Zrotation Yrotation Xrotation
					End Site
					{
						OFFSET 0.000000 0.000000 0.000000
					}
				}
			}
		}
	}
	JOINT spine_1
	{
		OFFSET -0.002763 0.109891 -0.027618
		CHANNELS 3 Zrotation Yrotation Xrotation
		JOINT spine_2
		{
			OFFSET 0.009448 0.131853 -0.005940
			CHANNELS 3 Zrotation Yrotation Xrotation
			JOINT spine_3
			{
				OFFSET -0.011330 0.052235 0.028447
				CHANNELS 3 Zrotation Yrotation Xrotation
				JOINT neck
				{
					OFFSET -0.012164 0.165167 -0.031615
					CHANNELS 3 Zrotation Yrotation Xrotation
					JOINT head
					{
						OFFSET 0.024783 0.160452 0.020737
						CHANNELS 3 Zrotation Yrotation Xrotation
						End Site
						{
							OFFSET 0.000000 0.000000 0.000000
						}
					}
				}
				JOINT left_collar
				{
					OFFSET 0.046364 0.084944 -0.007220
					CHANNELS 3 Zrotation Yrotation Xrotation
					JOINT left_shoulder
					{
						OFFSET 0.119239 0.057728 -0.015461
						CHANNELS 3 Zrotation Yrotation Xrotation
						JOINT left_elbow
						{
							OFFSET 0.254123 -0.072151 -0.042459
							CHANNELS 3 Zrotation Yrotation Xrotation
							JOINT left_wrist
							{
								OFFSET 0.251987 0.023221 -0.002472
								CHANNELS 3 Zrotation Yrotation Xrotation
								JOINT left_index_1
								{
									OFFSET 0.101902 -0.008688 0.019351
									CHANNELS 3 Zrotation Yrotation Xrotation
									JOINT left_index_2
									{
										OFFSET 0.030149 -0.011154 0.001151
										CHANNELS 3 Zrotation Yrotation Xrotation
										JOINT left_index_3
										{
											OFFSET 0.006504 -0.021577 -0.002433
											CHANNELS 3 Zrotation Yrotation Xrotation
											End Site
											{
												OFFSET 0.000000 0.000000 0.000000
											}
										}
									}
								}
								JOINT left_middle_1
								{
									OFFSET 0.109398 -0.006328 -0.003981
									CHANNELS 3 Zrotation Yrotation Xrotation
									JOINT left_middle_2
									{
										OFFSET 0.026472 -0.015218 -0.004641
										CHANNELS 3 Zrotation Yrotation Xrotation
										JOINT left_middle_3
										{
											OFFSET 0.005022 -0.023347 -0.001911
											CHANNELS 3 Zrotation Yrotation Xrotation
											End Site
											{
												OFFSET 0.000000 0.000000 0.000000
											}
										}
									}
								}
								JOINT left_pinky_1
								{
									OFFSET 0.084047 -0.014539 -0.043750
									CHANNELS 3 Zrotation Yrotation Xrotation
									JOINT left_pinky_2
									{
										OFFSET 0.012124 -0.014448 -0.005375
										CHANNELS 3 Zrotation Yrotation Xrotation
										JOINT left_pinky_3
										{
											OFFSET 0.003798 -0.018853 0.000167
											CHANNELS 3 Zrotation Yrotation Xrotation
											End Site
											{
												OFFSET 0.000000 0.000000 0.000000
											}
										}
									}
								}
								JOINT left_ring_1
								{
									OFFSET 0.097444 -0.009268 -0.027345
									CHANNELS 3 Zrotation Yrotation Xrotation
									JOINT left_ring_2
									{
										OFFSET 0.023561 -0.016057 -0.001895
										CHANNELS 3 Zrotation Yrotation Xrotation
										JOINT left_ring_3
										{
											OFFSET 0.004257 -0.023548 0.000814
											CHANNELS 3 Zrotation Yrotation Xrotation
											End Site
											{
												OFFSET 0.000000 0.000000 0.000000
											}
										}
									}
								}
								JOINT left_thumb_1
								{
									OFFSET 0.040636 -0.017977 0.025611
									CHANNELS 3 Zrotation Yrotation Xrotation
									JOINT left_thumb_2
									{
										OFFSET 0.021637 -0.017639 0.011623
										CHANNELS 3 Zrotation Yrotation Xrotation
										JOINT left_thumb_3
										{
											OFFSET 0.024002 -0.008356 0.006548
											CHANNELS 3 Zrotation Yrotation Xrotation
											End Site
											{
												OFFSET 0.000000 0.000000 0.000000
											}
										}
									}
								}
							}
						}
					}
				}
				JOINT right_collar
				{
					OFFSET -0.047695 0.084339 -0.013400
					CHANNELS 3 Zrotation Yrotation Xrotation
					JOINT right_shoulder
					{
						OFFSET -0.102578 0.053524 -0.012669
						CHANNELS 3 Zrotation Yrotation Xrotation
						JOINT right_elbow
						{
							OFFSET -0.271150 -0.036492 -0.026467
							CHANNELS 3 Zrotation Yrotation Xrotation
							JOINT right_wrist
							{
								OFFSET -0.249267 -0.004533 -0.015325
								CHANNELS 3 Zrotation Yrotation Xrotation
								JOINT right_index_1
								{
									OFFSET -0.099881 -0.011783 0.019600
									CHANNELS 3 Zrotation Yrotation Xrotation
									JOINT right_index_2
									{
										OFFSET -0.030148 -0.011154 0.001151
										CHANNELS 3 Zrotation Yrotation Xrotation
										JOINT right_index_3
										{
											OFFSET -0.006505 -0.021577 -0.002432
											CHANNELS 3 Zrotation Yrotation Xrotation
											End Site
											{
												OFFSET 0.000000 0.000000 0.000000
											}
										}
									}
								}
								JOINT right_middle_1
								{
									OFFSET -0.107376 -0.009422 -0.003734
									CHANNELS 3 Zrotation Yrotation Xrotation
									JOINT right_middle_2
									{
										OFFSET -0.026472 -0.015218 -0.004641
										CHANNELS 3 Zrotation Yrotation Xrotation
										JOINT right_middle_3
										{
											OFFSET -0.005022 -0.023347 -0.001911
											CHANNELS 3 Zrotation Yrotation Xrotation
											End Site
											{
												OFFSET 0.000000 0.000000 0.000000
											}
										}
									}
								}
								JOINT right_pinky_1
								{
									OFFSET -0.082027 -0.017634 -0.043503
									CHANNELS 3 Zrotation Yrotation Xrotation
									JOINT right_pinky_2
									{
										OFFSET -0.012123 -0.014448 -0.005374
										CHANNELS 3 Zrotation Yrotation Xrotation
										JOINT right_pinky_3
										{
											OFFSET -0.003798 -0.018852 0.000167
											CHANNELS 3 Zrotation Yrotation Xrotation
											End Site
											{
												OFFSET 0.000000 0.000000 0.000000
											}
										}
									}
								}
								JOINT right_ring_1
								{
									OFFSET -0.095423 -0.012362 -0.027099
									CHANNELS 3 Zrotation Yrotation Xrotation
									JOINT right_ring_2
									{
										OFFSET -0.023561 -0.016057 -0.001895
										CHANNELS 3 Zrotation Yrotation Xrotation
										JOINT right_ring_3
										{
											OFFSET -0.004257 -0.023548 0.000816
											CHANNELS 3 Zrotation Yrotation Xrotation
											End Site
											{
												OFFSET 0.000000 0.000000 0.000000
											}
										}
									}
								}
								JOINT right_thumb_1
								{
									OFFSET -0.038613 -0.021074 0.025861
									CHANNELS 3 Zrotation Yrotation Xrotation
									JOINT right_thumb_2
									{
										OFFSET -0.021636 -0.017639 0.011623
										CHANNELS 3 Zrotation Yrotation Xrotation
										JOINT right_thumb_3
										{
											OFFSET -0.024004 -0.008353 0.006547
											CHANNELS 3 Zrotation Yrotation Xrotation
											End Site
											{
												OFFSET 0.000000 0.000000 0.000000
											}
										}
									}
								}
							}
						}
					}
				}
			}
		}
	}
}
MOTION
Frames: 5
Frame Time: 0.050000
0.000027 0.958185 0.000587 0.203036 0.864093 -12.402404 2.040466 2.186456 17.514451 -2.055433 0.459616 -3.329456 2.866464 10.526243 8.007556 0.000000 0.000000 0.000000 -4.091784 -1.393435 17.143702 0.202705 -0.111805 -2.807852 -0.449169 -4.116031 5.473694 0.000000 0.000000 0.000000 -0.195659 -1.184473 17.267189 -7.452550 0.021580 -14.617511 7.565234 0.322357 23.121391 0.758103 1.585885 -11.037803 0.000000 0.000000 0.000000 -17.475562 -11.218927 5.534235 -49.563250 -3.187905 -8.660676 -10.028400 -28.119539 5.316836 -2.187250 0.452585 14.416891 -18.688455 2.381286 0.495185 -7.466653 6.351605 10.621518 0.000000 0.000000 0.000000 -14.819887 -1.608842 -3.648368 -25.152091 1.588747 -5.560223 0.000000 0.000000 0.000000 8.157399 -13.222727 -10.145157 -48.433152 -13.902079 -25.698060 0.000000 0.000000 0.000000 -12.057242 -3.297181 -3.027245 -41.102148 -5.856126 -14.629415 0.000000 0.000000 0.000000 7.175122 29.537420 28.938511 -0.841083 -18.363272 -5.697179 0.000000 0.000000 0.000000 16.544972 4.569834 1.567662 48.696093 3.929816 -4.898197 7.931365 27.724601 1.140902 4.206496 2.251747 20.476933 19.046312 -1.844483 0.113576 11.321228 -6.451583 7.087530 0.000000 0.000000 0.000000 15.297686 3.504374 -4.653426 26.867969 -3.590119 -4.119114 0.000000 0.000000 0.000000 -4.120478 13.890948 -10.025140 45.551890 7.463749 -21.201996 0.000000 0.000000 0.000000 11.840390 5.295312 -3.914423 40.386089 0.748833 -8.960378 0.000000 0.000000 0.000000 -5.589811 -27.756739 27.327656 1.999446 16.255137 -4.403775 0.000000 0.000000 0.000000 
-0.000209 0.958185 -0.000732 0.172336 1.324263 -12.371359 2.118528 2.109687 17.153890 -2.048973 0.424951 -2.976426 2.718007 10.218758 7.844860 0.000000 0.000000 0.000000 -4.035983 -1.417974 17.066921 0.266076 -0.112949 -2.757050 -0.639812 -4.465335 5.533885 0.000000 0.000000 0.000000 -0.288668 -1.205216 17.687907 -7.313411 -0.097861 -14.937554 7.511926 0.151347 23.048352 0.803328 1.589713 -11.072663 0.000000 0.000000 0.000000 -17.391555 -10.971621 5.329221 -49.480369 -3.426943 -8.614119 -10.306288 -27.977138 5.351901 -2.012575 0.624453 14.367737 -18.897775 2.598008 0.537438 -7.603003 6.175584 10.186974 0.000000 0.000000 0.000000 -15.280490 -1.658603 -3.758131 -24.688293 1.689527 -5.171081 0.000000 0.000000 0.000000 8.067144 -13.246500 -10.193168 -53.692434 -10.391599 -18.122453 0.000000 0.000000 0.000000 -12.363004 -3.325721 -3.070091 -41.926370 -2.789399 -8.475523 0.000000 0.000000 0.000000 6.725121 29.685370 29.057107 -0.591954 -18.378847 -5.825818 0.000000 0.000000 0.000000 16.588502 4.420435 1.482806 48.612949 3.924770 -4.873814 8.122333 27.755864 1.181458 4.127490 2.236718 20.494914 19.049906 -1.849978 0.115947 11.273707 -7.426213 8.839008 0.000000 0.000000 0.000000 14.428404 2.863891 -4.193884 28.135809 -3.269813 -5.371250 0.000000 0.000000 0.000000 -4.021322 13.882743 -10.041522 47.263073 7.810877 -20.819402 0.000000 0.000000 0.000000 14.236915 2.303464 -2.865853 38.225841 2.192351 -12.336694 0.000000 0.000000 0.000000 -4.466948 -29.737314 29.149522 -3.571659 17.738312 -7.659592 0.000000 0.000000 0.000000 
-0.000327 0.958185 -0.000732 0.205140 1.345609 -12.371751 2.079463 2.114725 17.149068 -2.040627 0.423734 -2.968874 2.728303 10.235483 7.843843 0.000000 0.000000 0.000000 -4.059259 -1.415470 17.075562 0.259206 -0.113042 -2.764704 -0.651453 -4.480980 5.525805 0.000000 0.000000 0.000000 -0.285613 -1.205289 17.689582 -7.358188 -0.080110 -14.943284 7.681876 0.740302 22.838469 0.877892 1.466467 -10.257313 0.000000 0.000000 0.000000 -17.352059 -11.852884 5.806906 -49.491183 -3.377130 -8.641488 -10.209397 -27.382826 5.181290 -1.925787 -0.437342 14.991187 -19.242945 3.813420 0.758075 -8.581994 6.461946 10.009398 0.000000 0.000000 0.000000 -14.093804 -2.668759 -3.973679 -28.242998 3.547678 -2.682585 0.000000 0.000000 0.000000 9.606742 -15.316344 -11.764711 -53.052675 -12.241839 -21.431754 0.000000 0.000000 0.000000 -13.466006 -1.658823 -2.426243 -41.274946 -5.499838 -14.522296 0.000000 0.000000 0.000000 7.398741 28.280355 27.611587 -1.455164 -17.725583 -5.160057 0.000000 0.000000 0.000000 16.713104 3.824511 1.157979 48.626400 3.570179 -4.921034 8.193884 27.782236 1.215987 4.191616 2.114018 20.591975 19.017510 -1.719221 0.085894 8.306011 -6.970986 9.780307 0.000000 0.000000 0.000000 14.340725 2.992870 -4.231950 29.401409 -3.965588 -4.361854 0.000000 0.000000 0.000000 -6.651172 12.986837 -8.412760 50.177381 9.591596 -23.046543 0.000000 0.000000 0.000000 11.753915 5.446559 -3.973433 40.969855 0.799394 -8.998883 0.000000 0.000000 0.000000 -5.804446 -30.308903 29.956072 -2.576984 19.677354 -7.872176 0.000000 0.000000 0.000000 
-0.000444 0.957863 -0.000732 0.201531 1.351980 -12.337114 2.088759 2.108061 17.109869 -2.036982 0.423244 -2.965995 2.754389 10.231006 7.757920 0.000000 0.000000 0.000000 -4.042508 -1.415475 17.040717 0.255704 -0.113023 -2.766774 -0.687096 -4.496084 5.432664 0.000000 0.000000 0.000000 -0.231539 -1.205688 17.629732 -7.384013 -0.058586 -14.902113 7.648813 0.721896 22.797464 0.882262 1.463190 -10.237557 0.000000 0.000000 0.000000 -17.336440 -11.859710 5.813379 -49.556990 -3.364202 -8.647916 -9.886666 -27.290374 5.084430 -2.326520 -0.524198 14.821387 -19.219512 3.216729 0.630050 -8.587775 6.388482 9.852089 0.000000 0.000000 0.000000 -14.914396 -0.416003 -3.198035 -27.180651 1.709514 -6.024375 0.000000 0.000000 0.000000 6.077943 -12.343399 -9.400822 -50.127862 -14.153929 -25.685383 0.000000 0.000000 0.000000 -13.327311 -2.381220 -2.736302 -38.910540 -5.101199 -14.274656 0.000000 0.000000 0.000000 6.995109 27.768871 27.057315 -3.752315 -14.511924 -3.125611 0.000000 0.000000 0.000000 16.679787 3.815268 1.149894 48.711323 3.549708 -4.931651 8.147848 27.797809 1.208531 4.287556 2.063761 20.556095 18.985860 -1.731537 0.093554 9.048597 -6.294724 8.069062 0.000000 0.000000 0.000000 15.216208 3.589391 -4.670360 24.974344 -3.694982 -3.177266 0.000000 0.000000 0.000000 -5.382336 13.589900 -9.489289 49.654969 9.042822 -21.936267 0.000000 0.000000 0.000000 11.734212 5.453623 -3.969889 41.590325 0.825410 -9.012438 0.000000 0.000000 0.000000 -5.509325 -27.825387 27.439210 1.480254 15.944352 -4.503971 0.000000 0.000000 0.000000 
-0.000562 0.957863 -0.000732 0.243810 1.366312 -12.337644 2.037303 2.115870 17.107673 -2.010251 0.421516 -2.962617 2.744514 10.220322 7.766601 0.000000 0.000000 0.000000 -4.145872 -1.398136 17.044205 0.368587 -0.116535 -2.764281 -0.689704 -4.494556 5.421267 0.000000 0.000000 0.000000 -0.221779 -1.206142 17.631239 -7.470654 -0.024629 -14.909657 7.664645 0.681466 22.798346 0.840511 1.465699 -10.232816 0.000000 0.000000 0.000000 -17.379425 -11.881128 5.833974 -49.506729 -3.371423 -8.637802 -9.804833 -27.282605 5.063268 -2.361272 -0.207140 14.537877 -18.640255 2.847569 0.588921 -9.897155 6.418903 9.232105 0.000000 0.000000 0.000000 -14.721464 -1.149618 -3.450350 -27.620323 1.685756 -6.089836 0.000000 0.000000 0.000000 7.061463 -13.086885 -10.044779 -55.092672 -10.954507 -18.626049 0.000000 0.000000 0.000000 -12.905989 -3.122692 -3.027025 -40.152705 -2.513800 -8.463225 0.000000 0.000000 0.000000 6.071941 29.552408 28.938454 0.613714 -17.651840 -6.125486 0.000000 0.000000 0.000000 16.633674 4.216989 1.435842 48.876396 3.359750 -5.005088 8.073938 28.027427 1.209894 3.644968 2.694304 19.217780 20.346633 -4.206134 0.654757 6.738623 -6.068940 9.508922 0.000000 0.000000 0.000000 15.352036 0.516442 -3.374476 25.445934 -3.871160 -2.385869 0.000000 0.000000 0.000000 -8.421739 14.193060 -9.418522 56.362863 8.344970 -17.886770 0.000000 0.000000 0.000000 12.651505 2.641256 -2.789793 42.491721 3.200213 -12.607153 0.000000 0.000000 0.000000 -6.577606 -29.683423 29.247894 2.450394 17.192119 -4.548982 0.000000 0.000000 0.000000 
